<svg width="1308" height="585" viewBox="0 0 1308 585" fill="none" xmlns="http://www.w3.org/2000/svg">
<path d="M170.595 305.785V378.01C170.595 402.62 172.913 421.702 177.55 435.255C175.053 437.752 171.665 439.892 167.385 441.675C163.105 443.815 158.29 444.885 152.94 444.885C145.45 444.885 139.387 442.745 134.75 438.465C130.47 434.185 128.33 428.478 128.33 421.345L127.795 305.785C124.942 301.505 122.98 298.295 121.91 296.155L26.145 101.415C22.5783 93.925 16.515 85.5433 7.955 76.27C11.165 72.7033 15.445 69.4933 20.795 66.64C26.145 63.7866 32.2083 62.36 38.985 62.36C46.475 62.36 52.36 64.3216 56.64 68.245C60.92 72.1683 64.8433 78.0533 68.41 85.9L156.15 274.755L239.075 98.74C242.642 90.5366 244.425 84.295 244.425 80.015C244.425 74.665 243.177 70.2066 240.68 66.64C247.1 63.7866 254.947 62.36 264.22 62.36C270.997 62.36 276.168 64.3216 279.735 68.245C283.302 72.1683 285.263 77.1616 285.62 83.225C285.62 90.0017 282.053 99.275 274.92 111.045L170.595 305.785ZM470.588 445.955C424.221 445.955 388.911 429.905 364.658 397.805C340.405 365.705 328.278 317.733 328.278 253.89C328.278 189.69 340.405 141.54 364.658 109.44C388.911 77.34 424.221 61.29 470.588 61.29C517.311 61.29 552.8 77.34 577.053 109.44C601.306 141.54 613.433 189.69 613.433 253.89C613.433 318.09 601.306 366.24 577.053 398.34C552.8 430.083 517.311 445.955 470.588 445.955ZM470.588 426.16C502.331 426.16 526.05 412.25 541.743 384.43C557.793 356.253 565.818 312.74 565.818 253.89C565.818 194.683 557.793 151.17 541.743 123.35C526.05 95.1733 502.331 81.085 470.588 81.085C439.201 81.085 415.483 95.1733 399.433 123.35C383.74 151.527 375.893 195.04 375.893 253.89C375.893 312.74 383.74 356.253 399.433 384.43C415.483 412.25 439.201 426.16 470.588 426.16ZM824.954 445.955C777.161 445.955 740.424 429.548 714.744 396.735C689.421 363.565 676.759 315.95 676.759 253.89C676.759 191.83 689.778 144.215 715.814 111.045C741.851 77.875 778.588 61.29 826.024 61.29C843.858 61.29 860.799 63.7867 876.849 68.78C892.899 73.4167 905.739 79.8367 915.369 88.04C925.356 96.2433 930.349 104.982 930.349 114.255C930.349 121.745 927.139 127.987 920.719 132.98C914.299 137.973 905.918 139.935 895.574 138.865C892.721 120.318 885.231 106.052 873.104 96.065C860.978 86.0783 845.641 81.085 827.094 81.085C758.614 81.085 724.374 138.687 724.374 253.89C724.374 368.737 758.436 426.16 826.559 426.16C857.233 426.16 878.098 415.638 889.154 394.595C900.211 373.195 905.739 348.585 905.739 320.765C905.739 277.608 892.543 253.177 866.149 247.47C867.576 242.12 870.786 238.197 875.779 235.7C880.773 232.847 887.014 231.42 894.504 231.42C910.554 231.42 923.751 238.018 934.094 251.215C944.438 264.055 949.609 284.563 949.609 312.74C949.609 336.28 945.151 358.215 936.234 378.545C927.318 398.875 913.586 415.282 895.039 427.765C876.493 439.892 853.131 445.955 824.954 445.955ZM1278.63 409.575C1282.56 421.345 1286.84 429.727 1291.47 434.72C1285.41 441.497 1277.03 444.885 1266.33 444.885C1259.55 444.885 1253.67 443.28 1248.67 440.07C1243.68 437.217 1240.47 432.937 1239.04 427.23L1206.41 321.3H1066.24L1039.49 410.645C1037.35 418.492 1036.28 424.377 1036.28 428.3C1036.28 434.007 1037.35 438.108 1039.49 440.605C1032 443.458 1024.15 444.885 1015.95 444.885C999.543 444.885 991.339 438.287 991.339 425.09C991.339 420.453 993.123 412.428 996.689 401.015L1110.11 68.245C1121.88 63.6083 1133.65 61.29 1145.42 61.29C1159.33 61.29 1167.89 66.64 1171.1 77.34L1278.63 409.575ZM1198.92 295.62L1135.79 90.18L1074.26 295.62H1198.92Z" fill="#C4B9C7"/>
<path d="M169.595 271.785V344.01C169.595 368.62 171.913 387.702 176.55 401.255C174.053 403.752 170.665 405.892 166.385 407.675C162.105 409.815 157.29 410.885 151.94 410.885C144.45 410.885 138.387 408.745 133.75 404.465C129.47 400.185 127.33 394.478 127.33 387.345L126.795 271.785C123.942 267.505 121.98 264.295 120.91 262.155L25.145 67.415C21.5783 59.925 15.515 51.5433 6.955 42.27C10.165 38.7033 14.445 35.4933 19.795 32.64C25.145 29.7866 31.2083 28.36 37.985 28.36C45.475 28.36 51.36 30.3216 55.64 34.245C59.92 38.1683 63.8433 44.0533 67.41 51.9L155.15 240.755L238.075 64.74C241.642 56.5366 243.425 50.295 243.425 46.015C243.425 40.665 242.177 36.2066 239.68 32.64C246.1 29.7866 253.947 28.36 263.22 28.36C269.997 28.36 275.168 30.3216 278.735 34.245C282.302 38.1683 284.263 43.1616 284.62 49.225C284.62 56.0017 281.053 65.275 273.92 77.045L169.595 271.785ZM469.588 411.955C423.221 411.955 387.911 395.905 363.658 363.805C339.405 331.705 327.278 283.733 327.278 219.89C327.278 155.69 339.405 107.54 363.658 75.44C387.911 43.34 423.221 27.29 469.588 27.29C516.311 27.29 551.8 43.34 576.053 75.44C600.306 107.54 612.433 155.69 612.433 219.89C612.433 284.09 600.306 332.24 576.053 364.34C551.8 396.083 516.311 411.955 469.588 411.955ZM469.588 392.16C501.331 392.16 525.05 378.25 540.743 350.43C556.793 322.253 564.818 278.74 564.818 219.89C564.818 160.683 556.793 117.17 540.743 89.35C525.05 61.1733 501.331 47.085 469.588 47.085C438.201 47.085 414.483 61.1733 398.433 89.35C382.74 117.527 374.893 161.04 374.893 219.89C374.893 278.74 382.74 322.253 398.433 350.43C414.483 378.25 438.201 392.16 469.588 392.16ZM823.954 411.955C776.161 411.955 739.424 395.548 713.744 362.735C688.421 329.565 675.759 281.95 675.759 219.89C675.759 157.83 688.778 110.215 714.814 77.045C740.851 43.875 777.588 27.29 825.024 27.29C842.858 27.29 859.799 29.7867 875.849 34.78C891.899 39.4167 904.739 45.8367 914.369 54.04C924.356 62.2433 929.349 70.9817 929.349 80.255C929.349 87.745 926.139 93.9867 919.719 98.98C913.299 103.973 904.918 105.935 894.574 104.865C891.721 86.3183 884.231 72.0516 872.104 62.065C859.978 52.0783 844.641 47.085 826.094 47.085C757.614 47.085 723.374 104.687 723.374 219.89C723.374 334.737 757.436 392.16 825.559 392.16C856.233 392.16 877.098 381.638 888.154 360.595C899.211 339.195 904.739 314.585 904.739 286.765C904.739 243.608 891.543 219.177 865.149 213.47C866.576 208.12 869.786 204.197 874.779 201.7C879.773 198.847 886.014 197.42 893.504 197.42C909.554 197.42 922.751 204.018 933.094 217.215C943.438 230.055 948.609 250.563 948.609 278.74C948.609 302.28 944.151 324.215 935.234 344.545C926.318 364.875 912.586 381.282 894.039 393.765C875.493 405.892 852.131 411.955 823.954 411.955ZM1277.63 375.575C1281.56 387.345 1285.84 395.727 1290.47 400.72C1284.41 407.497 1276.03 410.885 1265.33 410.885C1258.55 410.885 1252.67 409.28 1247.67 406.07C1242.68 403.217 1239.47 398.937 1238.04 393.23L1205.41 287.3H1065.24L1038.49 376.645C1036.35 384.492 1035.28 390.377 1035.28 394.3C1035.28 400.007 1036.35 404.108 1038.49 406.605C1031 409.458 1023.15 410.885 1014.95 410.885C998.543 410.885 990.339 404.287 990.339 391.09C990.339 386.453 992.123 378.428 995.689 367.015L1109.11 34.245C1120.88 29.6083 1132.65 27.29 1144.42 27.29C1158.33 27.29 1166.89 32.64 1170.1 43.34L1277.63 375.575ZM1197.92 261.62L1134.79 56.18L1073.26 261.62H1197.92Z" fill="#66546B"/>
<path d="M1026.96 431.54C1029.4 431.54 1031.34 432 1032.78 432.92C1034.22 433.8 1034.94 435.04 1034.94 436.64C1034.94 437.84 1034.58 438.8 1033.86 439.52C1033.14 440.2 1032.34 440.54 1031.46 440.54C1030.54 440.54 1029.9 440.34 1029.54 439.94C1030.3 438.94 1030.68 437.88 1030.68 436.76C1030.68 434.64 1029.4 433.58 1026.84 433.58C1024.72 433.58 1023.34 434.44 1022.7 436.16C1022.06 437.88 1021.74 440.3 1021.74 443.42V445.58H1025.46C1026.1 445.58 1026.92 445.56 1027.92 445.52C1028.92 445.48 1029.74 445.44 1030.38 445.4L1030.32 446.72C1030.28 447.12 1030.12 447.46 1029.84 447.74C1029.6 447.98 1029.3 448.1 1028.94 448.1H1021.74V469.16C1021.74 472.04 1021.98 474.18 1022.46 475.58C1021.66 476.3 1020.76 476.66 1019.76 476.66C1018.96 476.66 1018.3 476.42 1017.78 475.94C1017.26 475.46 1017 474.82 1017 474.02L1016.94 448.1H1016.04C1014.4 448.1 1013.2 448.16 1012.44 448.28L1012.5 446.9C1012.54 446.46 1012.68 446.14 1012.92 445.94C1013.16 445.7 1013.48 445.58 1013.88 445.58H1016.94V442.64C1016.94 435.24 1020.28 431.54 1026.96 431.54ZM1045.24 476.78C1040.92 476.78 1037.54 475.38 1035.1 472.58C1032.7 469.74 1031.5 465.8 1031.5 460.76C1031.5 455.72 1032.7 451.8 1035.1 449C1037.54 446.16 1040.92 444.74 1045.24 444.74C1049.6 444.74 1052.98 446.16 1055.38 449C1057.82 451.8 1059.04 455.72 1059.04 460.76C1059.04 465.8 1057.82 469.74 1055.38 472.58C1052.98 475.38 1049.6 476.78 1045.24 476.78ZM1045.24 474.62C1048.04 474.62 1050.18 473.44 1051.66 471.08C1053.14 468.68 1053.88 465.24 1053.88 460.76C1053.88 456.28 1053.14 452.86 1051.66 450.5C1050.18 448.14 1048.04 446.96 1045.24 446.96C1042.44 446.96 1040.3 448.14 1038.82 450.5C1037.34 452.86 1036.6 456.28 1036.6 460.76C1036.6 465.24 1037.34 468.68 1038.82 471.08C1040.3 473.44 1042.44 474.62 1045.24 474.62ZM1074.03 444.74C1076.11 444.74 1077.77 445.3 1079.01 446.42C1080.29 447.5 1080.93 449.02 1080.93 450.98C1080.93 452.3 1080.55 453.4 1079.79 454.28C1079.03 455.12 1078.13 455.54 1077.09 455.54C1076.21 455.54 1075.61 455.34 1075.29 454.94C1075.73 454.26 1076.03 453.64 1076.19 453.08C1076.35 452.48 1076.43 451.82 1076.43 451.1C1076.43 448.62 1075.27 447.38 1072.95 447.38C1071.15 447.38 1069.63 448.54 1068.39 450.86C1067.19 453.14 1066.59 456.7 1066.59 461.54V464.78C1066.59 468.38 1066.63 470.82 1066.71 472.1C1066.79 473.38 1067.01 474.5 1067.37 475.46C1066.53 476.18 1065.59 476.54 1064.55 476.54C1063.75 476.54 1063.09 476.3 1062.57 475.82C1062.05 475.3 1061.79 474.6 1061.79 473.72V451.64C1061.79 450.52 1061.65 449.72 1061.37 449.24C1061.13 448.76 1060.71 448.52 1060.11 448.52C1059.35 448.52 1058.83 448.84 1058.55 449.48C1058.07 448.8 1057.83 448.16 1057.83 447.56C1057.83 446.72 1058.15 446.06 1058.79 445.58C1059.43 445.06 1060.31 444.8 1061.43 444.8C1062.99 444.8 1064.15 445.36 1064.91 446.48C1065.71 447.56 1066.09 449.18 1066.05 451.34V451.64C1066.73 449.36 1067.75 447.64 1069.11 446.48C1070.47 445.32 1072.11 444.74 1074.03 444.74Z" fill="#66546B"/>
<path d="M1114.82 468.26C1115.42 468.46 1115.72 468.92 1115.72 469.64C1115.72 470.04 1115.6 470.58 1115.36 471.26C1114.6 473.02 1113.26 474.38 1111.34 475.34C1109.46 476.3 1107.24 476.78 1104.68 476.78C1100.28 476.78 1096.84 475.42 1094.36 472.7C1091.88 469.94 1090.64 466.02 1090.64 460.94C1090.64 455.9 1091.86 451.94 1094.3 449.06C1096.78 446.18 1100.32 444.74 1104.92 444.74C1108.24 444.74 1110.9 445.5 1112.9 447.02C1114.9 448.5 1115.9 450.62 1115.9 453.38C1115.9 456.34 1114.7 458.6 1112.3 460.16C1109.9 461.72 1106.56 462.5 1102.28 462.5C1099.92 462.5 1097.76 462.36 1095.8 462.08C1096.04 466.12 1097.04 469.04 1098.8 470.84C1100.6 472.6 1102.94 473.48 1105.82 473.48C1108.02 473.48 1109.92 473.04 1111.52 472.16C1113.12 471.24 1114.22 469.94 1114.82 468.26ZM1104.74 446.9C1102.02 446.9 1099.84 448.04 1098.2 450.32C1096.6 452.56 1095.78 455.8 1095.74 460.04C1097.66 460.2 1099.22 460.3 1100.42 460.34C1103.62 460.34 1106.14 459.78 1107.98 458.66C1109.86 457.5 1110.8 455.54 1110.8 452.78C1110.8 450.66 1110.22 449.16 1109.06 448.28C1107.9 447.36 1106.46 446.9 1104.74 446.9ZM1138.68 445.16C1140.56 445.16 1141.48 445.9 1141.44 447.38C1141.44 448.26 1141.26 449.16 1140.9 450.08L1130.88 475.88C1129.8 476.4 1128.72 476.66 1127.64 476.66C1126.16 476.66 1125.22 476.06 1124.82 474.86L1115.34 449.06C1114.86 447.74 1114.4 446.82 1113.96 446.3C1114.64 445.54 1115.58 445.16 1116.78 445.16C1117.5 445.16 1118.12 445.34 1118.64 445.7C1119.16 446.02 1119.5 446.5 1119.66 447.14L1128.3 473.54L1136.28 448.94C1136.48 447.94 1136.58 447.3 1136.58 447.02C1136.58 446.38 1136.48 445.92 1136.28 445.64C1137.04 445.32 1137.84 445.16 1138.68 445.16ZM1163.9 468.26C1164.5 468.46 1164.8 468.92 1164.8 469.64C1164.8 470.04 1164.68 470.58 1164.44 471.26C1163.68 473.02 1162.34 474.38 1160.42 475.34C1158.54 476.3 1156.32 476.78 1153.76 476.78C1149.36 476.78 1145.92 475.42 1143.44 472.7C1140.96 469.94 1139.72 466.02 1139.72 460.94C1139.72 455.9 1140.94 451.94 1143.38 449.06C1145.86 446.18 1149.4 444.74 1154 444.74C1157.32 444.74 1159.98 445.5 1161.98 447.02C1163.98 448.5 1164.98 450.62 1164.98 453.38C1164.98 456.34 1163.78 458.6 1161.38 460.16C1158.98 461.72 1155.64 462.5 1151.36 462.5C1149 462.5 1146.84 462.36 1144.88 462.08C1145.12 466.12 1146.12 469.04 1147.88 470.84C1149.68 472.6 1152.02 473.48 1154.9 473.48C1157.1 473.48 1159 473.04 1160.6 472.16C1162.2 471.24 1163.3 469.94 1163.9 468.26ZM1153.82 446.9C1151.1 446.9 1148.92 448.04 1147.28 450.32C1145.68 452.56 1144.86 455.8 1144.82 460.04C1146.74 460.2 1148.3 460.3 1149.5 460.34C1152.7 460.34 1155.22 459.78 1157.06 458.66C1158.94 457.5 1159.88 455.54 1159.88 452.78C1159.88 450.66 1159.3 449.16 1158.14 448.28C1156.98 447.36 1155.54 446.9 1153.82 446.9ZM1180.09 444.74C1182.17 444.74 1183.83 445.3 1185.07 446.42C1186.35 447.5 1186.99 449.02 1186.99 450.98C1186.99 452.3 1186.61 453.4 1185.85 454.28C1185.09 455.12 1184.19 455.54 1183.15 455.54C1182.27 455.54 1181.67 455.34 1181.35 454.94C1181.79 454.26 1182.09 453.64 1182.25 453.08C1182.41 452.48 1182.49 451.82 1182.49 451.1C1182.49 448.62 1181.33 447.38 1179.01 447.38C1177.21 447.38 1175.69 448.54 1174.45 450.86C1173.25 453.14 1172.65 456.7 1172.65 461.54V464.78C1172.65 468.38 1172.69 470.82 1172.77 472.1C1172.85 473.38 1173.07 474.5 1173.43 475.46C1172.59 476.18 1171.65 476.54 1170.61 476.54C1169.81 476.54 1169.15 476.3 1168.63 475.82C1168.11 475.3 1167.85 474.6 1167.85 473.72V451.64C1167.85 450.52 1167.71 449.72 1167.43 449.24C1167.19 448.76 1166.77 448.52 1166.17 448.52C1165.41 448.52 1164.89 448.84 1164.61 449.48C1164.13 448.8 1163.89 448.16 1163.89 447.56C1163.89 446.72 1164.21 446.06 1164.85 445.58C1165.49 445.06 1166.37 444.8 1167.49 444.8C1169.05 444.8 1170.21 445.36 1170.97 446.48C1171.77 447.56 1172.15 449.18 1172.11 451.34V451.64C1172.79 449.36 1173.81 447.64 1175.17 446.48C1176.53 445.32 1178.17 444.74 1180.09 444.74ZM1211.91 473.06C1211.91 484.34 1207.21 489.98 1197.81 489.98C1194.93 489.98 1192.49 489.46 1190.49 488.42C1188.53 487.38 1187.55 485.74 1187.55 483.5C1187.55 482.38 1187.87 481.44 1188.51 480.68C1189.19 479.92 1190.07 479.54 1191.15 479.54C1192.23 479.54 1193.01 479.84 1193.49 480.44C1192.97 480.76 1192.59 481.18 1192.35 481.7C1192.11 482.26 1191.99 482.78 1191.99 483.26C1191.99 484.82 1192.55 485.98 1193.67 486.74C1194.83 487.54 1196.21 487.94 1197.81 487.94C1201.09 487.94 1203.51 486.7 1205.07 484.22C1206.63 481.74 1207.41 478.04 1207.41 473.12C1207.41 471.8 1207.47 470.36 1207.59 468.8C1206.75 471.24 1205.45 473.14 1203.69 474.5C1201.93 475.86 1199.77 476.54 1197.21 476.54C1194.13 476.54 1191.85 475.58 1190.37 473.66C1188.89 471.7 1188.13 468.46 1188.09 463.94V452.3C1188.09 449.54 1187.83 447.38 1187.31 445.82C1188.19 445.1 1189.13 444.74 1190.13 444.74C1190.93 444.74 1191.57 444.98 1192.05 445.46C1192.57 445.94 1192.83 446.6 1192.83 447.44L1192.89 463.34C1192.89 467.02 1193.31 469.7 1194.15 471.38C1195.03 473.02 1196.47 473.84 1198.47 473.84C1200.91 473.84 1202.97 472.68 1204.65 470.36C1206.33 468 1207.17 464.4 1207.17 459.56C1207.17 454.52 1207.13 451.24 1207.05 449.72C1206.97 448.2 1206.73 446.9 1206.33 445.82C1207.17 445.1 1208.09 444.74 1209.09 444.74C1209.89 444.74 1210.55 445 1211.07 445.52C1211.59 446.04 1211.85 446.74 1211.85 447.62L1211.91 473.06ZM1227.2 476.78C1222.88 476.78 1219.5 475.38 1217.06 472.58C1214.66 469.74 1213.46 465.8 1213.46 460.76C1213.46 455.72 1214.66 451.8 1217.06 449C1219.5 446.16 1222.88 444.74 1227.2 444.74C1231.56 444.74 1234.94 446.16 1237.34 449C1239.78 451.8 1241 455.72 1241 460.76C1241 465.8 1239.78 469.74 1237.34 472.58C1234.94 475.38 1231.56 476.78 1227.2 476.78ZM1227.2 474.62C1230 474.62 1232.14 473.44 1233.62 471.08C1235.1 468.68 1235.84 465.24 1235.84 460.76C1235.84 456.28 1235.1 452.86 1233.62 450.5C1232.14 448.14 1230 446.96 1227.2 446.96C1224.4 446.96 1222.26 448.14 1220.78 450.5C1219.3 452.86 1218.56 456.28 1218.56 460.76C1218.56 465.24 1219.3 468.68 1220.78 471.08C1222.26 473.44 1224.4 474.62 1227.2 474.62ZM1268.06 469.16C1268.14 472.2 1268.4 474.34 1268.84 475.58C1268.04 476.3 1267.12 476.66 1266.08 476.66C1265.24 476.66 1264.56 476.42 1264.04 475.94C1263.52 475.46 1263.26 474.82 1263.26 474.02V457.82C1263.22 454.34 1262.72 451.76 1261.76 450.08C1260.84 448.4 1259.26 447.56 1257.02 447.56C1255.62 447.56 1254.26 448.04 1252.94 449C1251.66 449.96 1250.6 451.48 1249.76 453.56C1248.92 455.64 1248.5 458.3 1248.5 461.54C1248.5 466.7 1248.54 470.06 1248.62 471.62C1248.7 473.18 1248.94 474.5 1249.34 475.58C1248.5 476.3 1247.58 476.66 1246.58 476.66C1245.74 476.66 1245.06 476.4 1244.54 475.88C1244.02 475.36 1243.76 474.66 1243.76 473.78V451.64C1243.72 450.52 1243.56 449.72 1243.28 449.24C1243.04 448.76 1242.64 448.52 1242.08 448.52C1241.32 448.52 1240.8 448.84 1240.52 449.48C1240.04 448.8 1239.8 448.16 1239.8 447.56C1239.8 446.72 1240.12 446.06 1240.76 445.58C1241.4 445.06 1242.28 444.8 1243.4 444.8C1244.92 444.8 1246.08 445.32 1246.88 446.36C1247.68 447.4 1248.08 448.94 1248.08 450.98V452.18C1248.92 449.82 1250.24 448 1252.04 446.72C1253.84 445.4 1255.96 444.74 1258.4 444.74C1264.84 444.74 1268.06 448.9 1268.06 457.22V469.16ZM1294.11 468.26C1294.71 468.46 1295.01 468.92 1295.01 469.64C1295.01 470.04 1294.89 470.58 1294.65 471.26C1293.89 473.02 1292.55 474.38 1290.63 475.34C1288.75 476.3 1286.53 476.78 1283.97 476.78C1279.57 476.78 1276.13 475.42 1273.65 472.7C1271.17 469.94 1269.93 466.02 1269.93 460.94C1269.93 455.9 1271.15 451.94 1273.59 449.06C1276.07 446.18 1279.61 444.74 1284.21 444.74C1287.53 444.74 1290.19 445.5 1292.19 447.02C1294.19 448.5 1295.19 450.62 1295.19 453.38C1295.19 456.34 1293.99 458.6 1291.59 460.16C1289.19 461.72 1285.85 462.5 1281.57 462.5C1279.21 462.5 1277.05 462.36 1275.09 462.08C1275.33 466.12 1276.33 469.04 1278.09 470.84C1279.89 472.6 1282.23 473.48 1285.11 473.48C1287.31 473.48 1289.21 473.04 1290.81 472.16C1292.41 471.24 1293.51 469.94 1294.11 468.26ZM1284.03 446.9C1281.31 446.9 1279.13 448.04 1277.49 450.32C1275.89 452.56 1275.07 455.8 1275.03 460.04C1276.95 460.2 1278.51 460.3 1279.71 460.34C1282.91 460.34 1285.43 459.78 1287.27 458.66C1289.15 457.5 1290.09 455.54 1290.09 452.78C1290.09 450.66 1289.51 449.16 1288.35 448.28C1287.19 447.36 1285.75 446.9 1284.03 446.9Z" fill="#66546B"/>
</svg>
